Coordinates
version=1
nRows=41
nColumns=38
inDegrees=no

Units are S.I. units (second, meters, Newtons, ...)
If the header above contains a line with 'inDegrees', this indicates whether rotational values are in degrees (yes) or radians (no).

endheader
time	pelvis_tilt	pelvis_list	pelvis_rotation	pelvis_tx	pelvis_ty	pelvis_tz	hip_flexion_r	hip_adduction_r	hip_rotation_r	knee_angle_r	ankle_angle_r	subtalar_angle_r	mtp_angle_r	hip_flexion_l	hip_adduction_l	hip_rotation_l	knee_angle_l	ankle_angle_l	subtalar_angle_l	mtp_angle_l	lumbar_extension	lumbar_bending	lumbar_rotation	arm_flex_r	arm_add_r	arm_rot_r	elbow_flex_r	pro_sup_r	wrist_flex_r	wrist_dev_r	arm_flex_l	arm_add_l	arm_rot_l	elbow_flex_l	pro_sup_l	wrist_flex_l	wrist_dev_l
0.78	-0.713294	1.39088	2.34096	0.743291	-0.206836	0.972557	0.710217	-0.106539	0.34829	0.847344	-0.149194	0	0	-0.0589379	-0.00704173	-0.352057	0.782817	-0.191572	0	0	-0.02422	-0.148094	0.339318	-0.36855	-0.554792	0.324643	1.13894	0.851209	0	0	0.145299	-0.512386	0.886876	0.88832	0.785061	0	0
0.79	-0.699404	1.3903	2.32341	0.744885	-0.194942	0.973618	0.709304	-0.101842	0.34445	0.86406	-0.148516	0	0	-0.0337106	-0.0170325	-0.341487	0.838401	-0.222289	0	0	-0.019608	-0.147388	0.339737	-0.358831	-0.55485	0.339782	1.1318	0.843909	0	0	0.138962	-0.512638	0.87838	0.884125	0.787276	0	0
0.8	-0.69362	1.38915	2.31438	0.746303	-0.18324	0.974978	0.70454	-0.100699	0.338345	0.874734	-0.146186	0	0	-0.00589453	-0.0241456	-0.327353	0.895656	-0.256457	0	0	-0.0163449	-0.148476	0.339051	-0.347323	-0.555398	0.356838	1.12416	0.836126	0	0	0.132909	-0.513068	0.869051	0.880276	0.790006	0	0
0.81	-0.695897	1.38798	2.31454	0.747311	-0.171803	0.976596	0.69559	-0.10389	0.328543	0.879536	-0.142881	0	0	0.0235162	-0.0290406	-0.312171	0.954071	-0.284477	0	0	-0.0153866	-0.150731	0.338404	-0.337408	-0.555827	0.370702	1.11792	0.830309	0	0	0.129118	-0.5129	0.861132	0.876501	0.792669	0	0
0.82	-0.703385	1.38626	2.32124	0.747991	-0.160655	0.978353	0.683904	-0.11057	0.315542	0.880068	-0.138348	0	0	0.0553388	-0.0317652	-0.296304	1.01302	-0.310149	0	0	-0.016359	-0.154341	0.335058	-0.326059	-0.557328	0.385539	1.11308	0.823992	0	0	0.123838	-0.512985	0.848259	0.874717	0.798635	0	0
0.83	-0.715424	1.38375	2.33362	0.748412	-0.149818	0.980097	0.670693	-0.119977	0.300335	0.878417	-0.129802	0	0	0.0895048	-0.0320506	-0.279979	1.07069	-0.342924	0	0	-0.0169821	-0.158867	0.335455	-0.320021	-0.558267	0.394242	1.11063	0.813242	0	0	0.128572	-0.514193	0.854879	0.871265	0.790192	0	0
0.84	-0.729127	1.38069	2.34848	0.748545	-0.139282	0.981752	0.657447	-0.130408	0.285385	0.876251	-0.12234	0	0	0.124907	-0.0296102	-0.262267	1.12546	-0.365028	0	0	-0.0188263	-0.164295	0.332974	-0.312259	-0.560496	0.404304	1.10964	0.805073	0	0	0.128472	-0.51497	0.849282	0.870792	0.792405	0	0
0.85	-0.74264	1.37728	2.36395	0.748357	-0.129015	0.983303	0.644748	-0.141385	0.270951	0.87457	-0.11497	0	0	0.160863	-0.0249125	-0.244599	1.17638	-0.375795	0	0	-0.0215267	-0.169783	0.329261	-0.304733	-0.563668	0.413508	1.11027	0.796683	0	0	0.128076	-0.515914	0.842218	0.871962	0.795223	0	0
0.86	-0.756902	1.37396	2.38014	0.747983	-0.11896	0.984846	0.632481	-0.15183	0.25818	0.873678	-0.108609	0	0	0.196023	-0.0192301	-0.230746	1.22292	-0.368024	0	0	-0.0245563	-0.175178	0.325771	-0.297131	-0.567599	0.423025	1.11114	0.788468	0	0	0.128181	-0.51663	0.835211	0.873464	0.798153	0	0
0.87	-0.771829	1.37097	2.39631	0.747523	-0.109073	0.986491	0.620869	-0.160853	0.248598	0.874034	-0.103466	0	0	0.229884	-0.013734	-0.222276	1.26444	-0.350498	0	0	-0.0278377	-0.180338	0.32288	-0.288872	-0.571724	0.432738	1.11101	0.780292	0	0	0.128439	-0.516608	0.827711	0.874444	0.801568	0	0
0.88	-0.786	1.36835	2.41127	0.746962	-0.0993302	0.988254	0.608667	-0.169174	0.240474	0.873417	-0.0988796	0	0	0.262867	-0.00847563	-0.217795	1.29959	-0.336012	0	0	-0.0311627	-0.185014	0.320234	-0.27982	-0.57606	0.44347	1.10992	0.77374	0	0	0.128623	-0.515751	0.819629	0.874607	0.80547	0	0
0.89	-0.798312	1.36605	2.42405	0.746306	-0.0896881	0.990052	0.595799	-0.177188	0.232619	0.871416	-0.09461	0	0	0.295479	-0.00300421	-0.215005	1.32721	-0.326278	0	0	-0.0350867	-0.188903	0.317373	-0.270571	-0.580685	0.453936	1.10897	0.767702	0	0	0.128145	-0.514195	0.810026	0.87462	0.809658	0	0
0.9	-0.808083	1.36392	2.43399	0.745531	-0.0801444	0.991781	0.582757	-0.185062	0.224133	0.868532	-0.0908036	0	0	0.328176	0.002577	-0.212511	1.34745	-0.318309	0	0	-0.0384138	-0.192086	0.315381	-0.261856	-0.58519	0.463784	1.10759	0.762215	0	0	0.12811	-0.512035	0.80117	0.874331	0.81384	0	0
0.91	-0.81416	1.36143	2.43984	0.744672	-0.0706616	0.993345	0.570524	-0.192697	0.215442	0.865396	-0.0869656	0	0	0.360879	0.00805334	-0.210789	1.36076	-0.308682	0	0	-0.0402615	-0.194931	0.313594	-0.252362	-0.589784	0.475133	1.10531	0.756516	0	0	0.126941	-0.509433	0.790405	0.874174	0.819667	0	0
0.92	-0.818536	1.35851	2.44325	0.743815	-0.0612147	0.994775	0.559191	-0.200079	0.207007	0.862154	-0.0838008	0	0	0.392678	0.0130397	-0.21166	1.36759	-0.29875	0	0	-0.0420882	-0.197823	0.311733	-0.242621	-0.594078	0.485681	1.10326	0.752128	0	0	0.124659	-0.506928	0.777765	0.875173	0.826272	0	0
0.93	-0.820134	1.35495	2.44352	0.742944	-0.0517696	0.996063	0.549338	-0.207611	0.197905	0.859512	-0.0804867	0	0	0.423859	0.0175258	-0.215224	1.36865	-0.284038	0	0	-0.0404568	-0.200903	0.304188	-0.221312	-0.601035	0.515149	1.09663	0.732192	0	0	0.11368	-0.505609	0.753331	0.878642	0.836938	0	0
0.94	-0.821279	1.3512	2.44336	0.742116	-0.0423384	0.997225	0.540166	-0.215709	0.187062	0.857572	-0.0786942	0	0	0.453965	0.0212241	-0.220853	1.36441	-0.271691	0	0	-0.0392397	-0.204128	0.302382	-0.209567	-0.604195	0.529999	1.09201	0.72431	0	0	0.111267	-0.503843	0.742883	0.879254	0.841947	0	0
0.95	-0.819763	1.34748	2.44138	0.741297	-0.0329972	0.998276	0.531154	-0.22379	0.174681	0.855575	-0.0767379	0	0	0.483641	0.0243478	-0.226051	1.35573	-0.259559	0	0	-0.0379675	-0.207029	0.298347	-0.195317	-0.606902	0.547868	1.08606	0.715357	0	0	0.107318	-0.502359	0.729858	0.880272	0.847846	0	0
0.96	-0.818091	1.34368	2.43944	0.740527	-0.0238153	0.999236	0.521642	-0.23062	0.165238	0.852345	-0.0740509	0	0	0.512242	0.02741	-0.230976	1.34234	-0.249021	0	0	-0.0365333	-0.210102	0.294603	-0.181022	-0.608461	0.565273	1.0789	0.706013	0	0	0.104584	-0.500598	0.718271	0.880178	0.85353	0	0
0.97	-0.818468	1.33976	2.43839	0.739862	-0.0144336	1.0001	0.512449	-0.237317	0.156711	0.849865	-0.0717701	0	0	0.537894	0.0295837	-0.238093	1.32371	-0.240528	0	0	-0.0343073	-0.213679	0.292001	-0.166638	-0.608922	0.583376	1.07017	0.696506	0	0	0.1017	-0.499029	0.707514	0.879403	0.859193	0	0
0.98	-0.820846	1.33598	2.4383	0.739253	-0.00492371	1.00088	0.502924	-0.2436	0.14959	0.8475	-0.0690473	0	0	0.560588	0.030647	-0.247426	1.30031	-0.232881	0	0	-0.0324513	-0.21748	0.289394	-0.151691	-0.608808	0.601842	1.06087	0.686749	0	0	0.097915	-0.497891	0.696351	0.878884	0.864787	0	0
0.99	-0.826298	1.33305	2.4411	0.738628	0.00459604	1.00166	0.491771	-0.249293	0.143531	0.844602	-0.0657189	0	0	0.57991	0.0304096	-0.258814	1.27266	-0.226842	0	0	-0.0318363	-0.221074	0.288388	-0.139297	-0.608007	0.616362	1.0522	0.678558	0	0	0.0967427	-0.496409	0.689205	0.877001	0.868752	0	0
1	-0.833294	1.33059	2.44448	0.738006	0.0142748	1.00238	0.479485	-0.254005	0.13939	0.840658	-0.06142	0	0	0.595762	0.0276181	-0.274628	1.24114	-0.22237	0	0	-0.0312294	-0.224358	0.288385	-0.12755	-0.606843	0.630345	1.04334	0.670388	0	0	0.095477	-0.494387	0.682204	0.874209	0.872813	0	0
1.01	-0.841118	1.32845	2.4477	0.737407	0.0241545	1.00296	0.466659	-0.257841	0.13685	0.836205	-0.0571363	0	0	0.608067	0.021426	-0.296206	1.20675	-0.219371	0	0	-0.0312456	-0.227521	0.289154	-0.117233	-0.605226	0.641963	1.03535	0.663812	0	0	0.0938665	-0.49275	0.675701	0.872094	0.87639	0	0
1.02	-0.850678	1.32726	2.45372	0.736703	0.0339802	1.0035	0.452839	-0.261738	0.133035	0.832424	-0.0532769	0	0	0.61715	0.0142781	-0.318731	1.1697	-0.217053	0	0	-0.0328268	-0.230354	0.289747	-0.108703	-0.603299	0.650533	1.02847	0.65855	0	0	0.0941641	-0.491125	0.671781	0.869504	0.878817	0	0
1.03	-0.860556	1.32619	2.46135	0.735839	0.0435806	1.00398	0.438793	-0.265894	0.129	0.82888	-0.049673	0	0	0.624654	0.0110306	-0.335287	1.1287	-0.214662	0	0	-0.0354682	-0.233222	0.289496	-0.10101	-0.601317	0.65715	1.02247	0.654698	0	0	0.0959422	-0.489278	0.669136	0.86629	0.881112	0	0
1.04	-0.8682	1.3244	2.46689	0.734868	0.053133	1.00425	0.425556	-0.270145	0.125949	0.825094	-0.0443361	0	0	0.631423	0.011681	-0.34627	1.08351	-0.211822	0	0	-0.0338668	-0.236464	0.272582	-0.0624362	-0.60271	0.713826	1.00636	0.618566	0	0	0.0752291	-0.489899	0.634005	0.871185	0.893925	0	0
1.05	-0.875078	1.32266	2.47185	0.733776	0.0626165	1.00432	0.412599	-0.274579	0.122782	0.821634	-0.0396385	0	0	0.636705	0.0150014	-0.352465	1.03491	-0.208627	0	0	-0.0353341	-0.239475	0.269784	-0.0509835	-0.600572	0.726793	0.998723	0.60993	0	0	0.0747798	-0.489109	0.62947	0.86927	0.895496	0	0
1.06	-0.879286	1.32087	2.47446	0.732557	0.0720009	1.00416	0.400279	-0.278901	0.119247	0.818356	-0.034722	0	0	0.64143	0.020189	-0.353574	0.983753	-0.204131	0	0	-0.0364142	-0.241969	0.267419	-0.040731	-0.598494	0.738595	0.991579	0.602061	0	0	0.0752711	-0.488079	0.626034	0.866955	0.896762	0	0
1.07	-0.881172	1.31904	2.47482	0.731277	0.0812855	1.00373	0.388849	-0.283059	0.115379	0.815735	-0.0300197	0	0	0.645568	0.0266327	-0.349801	0.930448	-0.19926	0	0	-0.0378816	-0.244027	0.265132	-0.0318108	-0.596513	0.74796	0.985629	0.594066	0	0	0.0758221	-0.487329	0.622352	0.865739	0.897239	0	0
1.08	-0.880786	1.31721	2.4734	0.729837	0.0904705	1.00305	0.377993	-0.287151	0.111441	0.813591	-0.0254045	0	0	0.64889	0.0349787	-0.339291	0.874129	-0.194625	0	0	-0.0387405	-0.245526	0.262668	-0.0232394	-0.594435	0.757464	0.979396	0.584498	0	0	0.0766267	-0.486879	0.619563	0.864804	0.896638	0	0
1.09	-0.865519	1.30415	2.46784	0.726683	0.098154	1.00252	0.379151	-0.30362	0.101833	0.814522	-0.0228506	0	0	0.632643	0.109777	-0.199543	0.726476	-0.183097	0	0	-0.0334528	-0.254676	0.249972	-0.013239	-0.58629	0.765079	0.965896	0.576699	0	0	0.0817017	-0.486538	0.620368	0.858376	0.895598	0	0
1.1	-0.858442	1.30265	2.45994	0.725061	0.107252	1.00128	0.37019	-0.306475	0.0981234	0.813784	-0.016371	0	0	0.63096	0.119094	-0.167725	0.659377	-0.188913	0	0	-0.0340789	-0.254462	0.248596	-0.00875425	-0.585148	0.768431	0.962668	0.568274	0	0	0.0830987	-0.485896	0.618221	0.858246	0.896013	0	0
1.11	-0.858286	1.3103	2.45124	0.724526	0.117583	0.99955	0.352616	-0.299651	0.0973351	0.811699	-0.00828781	0	0	0.650446	0.0746809	-0.249998	0.673858	-0.200709	0	0	-0.0385281	-0.247	0.25516	-0.00716491	-0.589266	0.771683	0.966169	0.562084	0	0	0.080939	-0.485093	0.614019	0.862322	0.896352	0	0
1.12	-0.833909	1.30161	2.43372	0.721674	0.125809	0.997938	0.352711	-0.308727	0.0891255	0.813542	-0.00426718	0	0	0.628627	0.125166	-0.111649	0.535707	-0.206731	0	0	-0.0328635	-0.250039	0.24705	-0.00394071	-0.584512	0.771323	0.95972	0.561649	0	0	0.0836795	-0.48448	0.61338	0.859229	0.896252	0	0
1.13	-0.816798	1.30167	2.41534	0.719964	0.135246	0.99592	0.344732	-0.308207	0.0846641	0.813753	0.0012318	0	0	0.627936	0.122633	-0.0911773	0.480035	-0.207359	0	0	-0.0315568	-0.246137	0.248617	-0.00599034	-0.584908	0.766931	0.96128	0.562763	0	0	0.0847146	-0.483464	0.612675	0.859929	0.896912	0	0
1.14	-0.797307	1.30171	2.39444	0.718152	0.144835	0.993728	0.337357	-0.307418	0.0795732	0.81439	0.0074326	0	0	0.627237	0.118203	-0.074635	0.427656	-0.20114	0	0	-0.0270693	-0.241398	0.241327	0.00893655	-0.586409	0.79272	0.957375	0.544353	0	0	0.0722688	-0.482973	0.592355	0.86485	0.905702	0	0
1.15	-0.777671	1.30169	2.37295	0.71627	0.154573	0.991366	0.330506	-0.306724	0.0743068	0.816007	0.0121179	0	0	0.627884	0.111896	-0.0661463	0.382614	-0.18955	0	0	-0.0245525	-0.236606	0.248925	-0.00315897	-0.587214	0.774371	0.962661	0.551676	0	0	0.0791265	-0.482539	0.603909	0.864318	0.899924	0	0
1.16	-0.757958	1.30135	2.35129	0.714189	0.164492	0.988905	0.323939	-0.306672	0.0682393	0.818281	0.0173505	0	0	0.629158	0.105431	-0.062856	0.34248	-0.175879	0	0	-0.0205553	-0.231801	0.249409	-0.00331758	-0.588601	0.77615	0.964349	0.547203	0	0	0.0747974	-0.482415	0.598005	0.868466	0.902274	0	0
1.17	-0.737655	1.30066	2.32907	0.711913	0.174567	0.986341	0.31778	-0.307137	0.0615033	0.821069	0.0233044	0	0	0.631507	0.0986273	-0.0637555	0.308861	-0.159585	0	0	-0.0150207	-0.226855	0.24386	0.00630701	-0.590439	0.79394	0.962912	0.533548	0	0	0.060755	-0.481945	0.576232	0.876181	0.913159	0	0
1.18	-0.718614	1.2998	2.30796	0.709531	0.184789	0.983746	0.311664	-0.308208	0.0542699	0.824439	0.027648	0	0	0.633909	0.0919048	-0.0656873	0.280942	-0.145226	0	0	-0.00977277	-0.222043	0.245232	0.00428651	-0.591811	0.793874	0.964588	0.530982	0	0	0.0561689	-0.48207	0.571494	0.880737	0.914939	0	0
